<?xml version="1.0" encoding="UTF-8"?>
<!DOCTYPE svg PUBLIC "-//W3C//DTD SVG 1.1//EN" "http://www.w3.org/Graphics/SVG/1.1/DTD/svg11.dtd">
<svg version="1.2" width="841mm" height="1189mm" viewBox="0 0 84100 118900" preserveAspectRatio="xMidYMid" fill-rule="evenodd" stroke-width="28.222" stroke-linejoin="round" xmlns="http://www.w3.org/2000/svg" xmlns:ooo="http://xml.openoffice.org/svg/export" xmlns:xlink="http://www.w3.org/1999/xlink" xmlns:presentation="http://sun.com/xmlns/staroffice/presentation" xmlns:smil="http://www.w3.org/2001/SMIL20/" xmlns:anim="urn:oasis:names:tc:opendocument:xmlns:animation:1.0" xml:space="preserve">
 <defs class="ClipPathGroup">
  <clipPath id="presentation_clip_path" clipPathUnits="userSpaceOnUse">
   <rect x="0" y="0" width="84100" height="118900"/>
  </clipPath>
  <clipPath id="presentation_clip_path_shrink" clipPathUnits="userSpaceOnUse">
   <rect x="84" y="118" width="83932" height="118663"/>
  </clipPath>
 </defs>
 <defs class="TextShapeIndex">
  <g ooo:slide="id1" ooo:id-list="id3 id4 id5 id6 id7 id8 id9 id10 id11 id12 id13 id14 id15 id16 id17"/>
 </defs>
 <defs class="EmbeddedBulletChars">
  <g id="bullet-char-template-57356" transform="scale(0.00048828125,-0.00048828125)">
   <path d="M 580,1141 L 1163,571 580,0 -4,571 580,1141 Z"/>
  </g>
  <g id="bullet-char-template-57354" transform="scale(0.00048828125,-0.00048828125)">
   <path d="M 8,1128 L 1137,1128 1137,0 8,0 8,1128 Z"/>
  </g>
  <g id="bullet-char-template-10146" transform="scale(0.00048828125,-0.00048828125)">
   <path d="M 174,0 L 602,739 174,1481 1456,739 174,0 Z M 1358,739 L 309,1346 659,739 1358,739 Z"/>
  </g>
  <g id="bullet-char-template-10132" transform="scale(0.00048828125,-0.00048828125)">
   <path d="M 2015,739 L 1276,0 717,0 1260,543 174,543 174,936 1260,936 717,1481 1274,1481 2015,739 Z"/>
  </g>
  <g id="bullet-char-template-10007" transform="scale(0.00048828125,-0.00048828125)">
   <path d="M 0,-2 C -7,14 -16,27 -25,37 L 356,567 C 262,823 215,952 215,954 215,979 228,992 255,992 264,992 276,990 289,987 310,991 331,999 354,1012 L 381,999 492,748 772,1049 836,1024 860,1049 C 881,1039 901,1025 922,1006 886,937 835,863 770,784 769,783 710,716 594,584 L 774,223 C 774,196 753,168 711,139 L 727,119 C 717,90 699,76 672,76 641,76 570,178 457,381 L 164,-76 C 142,-110 111,-127 72,-127 30,-127 9,-110 8,-76 1,-67 -2,-52 -2,-32 -2,-23 -1,-13 0,-2 Z"/>
  </g>
  <g id="bullet-char-template-10004" transform="scale(0.00048828125,-0.00048828125)">
   <path d="M 285,-33 C 182,-33 111,30 74,156 52,228 41,333 41,471 41,549 55,616 82,672 116,743 169,778 240,778 293,778 328,747 346,684 L 369,508 C 377,444 397,411 428,410 L 1163,1116 C 1174,1127 1196,1133 1229,1133 1271,1133 1292,1118 1292,1087 L 1292,965 C 1292,929 1282,901 1262,881 L 442,47 C 390,-6 338,-33 285,-33 Z"/>
  </g>
  <g id="bullet-char-template-9679" transform="scale(0.00048828125,-0.00048828125)">
   <path d="M 813,0 C 632,0 489,54 383,161 276,268 223,411 223,592 223,773 276,916 383,1023 489,1130 632,1184 813,1184 992,1184 1136,1130 1245,1023 1353,916 1407,772 1407,592 1407,412 1353,268 1245,161 1136,54 992,0 813,0 Z"/>
  </g>
  <g id="bullet-char-template-8226" transform="scale(0.00048828125,-0.00048828125)">
   <path d="M 346,457 C 273,457 209,483 155,535 101,586 74,649 74,723 74,796 101,859 155,911 209,963 273,989 346,989 419,989 480,963 531,910 582,859 608,796 608,723 608,648 583,586 532,535 482,483 420,457 346,457 Z"/>
  </g>
  <g id="bullet-char-template-8211" transform="scale(0.00048828125,-0.00048828125)">
   <path d="M -4,459 L 1135,459 1135,606 -4,606 -4,459 Z"/>
  </g>
  <g id="bullet-char-template-61548" transform="scale(0.00048828125,-0.00048828125)">
   <path d="M 173,740 C 173,903 231,1043 346,1159 462,1274 601,1332 765,1332 928,1332 1067,1274 1183,1159 1299,1043 1357,903 1357,740 1357,577 1299,437 1183,322 1067,206 928,148 765,148 601,148 462,206 346,322 231,437 173,577 173,740 Z"/>
  </g>
 </defs>
 <defs class="TextEmbeddedBitmaps"/>
 <g>
  <g id="id2" class="Master_Slide">
   <g id="bg-id2" class="Background"/>
   <g id="bo-id2" class="BackgroundObjects"/>
  </g>
 </g>
 <g class="SlideGroup">
  <g>
   <g id="container-id1">
    <g id="id1" class="Slide" clip-path="url(#presentation_clip_path)">
     <g class="Page">
      <g class="com.sun.star.drawing.CustomShape">
       <g id="id3">
        <rect class="BoundingBox" stroke="none" fill="none" x="-80200" y="19800" width="80002" height="80002"/>
        <path fill="rgb(188,228,229)" stroke="none" d="M -40200,19800 C -17520,19800 -200,37120 -200,59800 -200,82480 -17520,99800 -40200,99800 -62880,99800 -80200,82480 -80200,59800 -80200,37120 -62880,19800 -40200,19800 Z M -80200,19800 L -80200,19800 Z M -199,99801 L -199,99801 Z"/>
       </g>
      </g>
      <g class="com.sun.star.drawing.CustomShape">
       <g id="id4">
        <rect class="BoundingBox" stroke="none" fill="none" x="85400" y="20000" width="80002" height="80002"/>
        <path fill="rgb(255,255,255)" stroke="none" d="M 125400,20000 C 148080,20000 165400,37320 165400,60000 165400,82680 148080,100000 125400,100000 102720,100000 85400,82680 85400,60000 85400,37320 102720,20000 125400,20000 Z M 85400,20000 L 85400,20000 Z M 165401,100001 L 165401,100001 Z"/>
       </g>
      </g>
      <g class="com.sun.star.drawing.CustomShape">
       <g id="id5">
        <rect class="BoundingBox" stroke="none" fill="none" x="891" y="18891" width="80020" height="80020"/>
        <path fill="rgb(255,255,255)" stroke="none" d="M 40900,18900 C 63580,18900 80900,36220 80900,58900 80900,81580 63580,98900 40900,98900 18220,98900 900,81580 900,58900 900,36220 18220,18900 40900,18900 Z M 900,18900 L 900,18900 Z M 80901,98901 L 80901,98901 Z"/>
        <path fill="none" stroke="rgb(0,0,0)" stroke-width="18" stroke-linejoin="round" d="M 40900,18900 C 63580,18900 80900,36220 80900,58900 80900,81580 63580,98900 40900,98900 18220,98900 900,81580 900,58900 900,36220 18220,18900 40900,18900 Z"/>
       </g>
      </g>
      <g class="com.sun.star.drawing.ClosedBezierShape">
       <g id="id6">
        <rect class="BoundingBox" stroke="none" fill="none" x="28159" y="68459" width="25683" height="22484"/>
        <path fill="none" stroke="rgb(0,0,0)" stroke-width="882" stroke-linejoin="miter" d="M 53265,79225 L 50221,78677 C 50147,78663 50065,78596 50041,78527 L 49107,76419 C 49072,76355 49078,76252 49122,76192 L 50896,73690 C 50939,73630 50930,73538 50877,73486 L 48660,71341 C 48607,71290 48513,71281 48450,71323 L 45819,73070 C 45757,73111 45650,73119 45583,73087 L 43472,72250 C 43400,72228 43330,72150 43316,72079 L 42729,69031 C 42716,68959 42643,68900 42568,68900 L 39433,68900 C 39358,68900 39285,68959 39271,69031 L 38685,72079 C 38671,72150 38601,72228 38529,72250 L 36418,73087 C 36350,73119 36243,73111 36181,73070 L 33551,71323 C 33488,71281 33393,71290 33340,71341 L 31124,73486 C 31071,73538 31062,73630 31105,73690 L 32879,76192 C 32922,76252 32928,76355 32894,76419 L 31960,78527 C 31935,78596 31855,78663 31779,78677 L 28735,79225 C 28661,79238 28600,79309 28600,79382 L 28600,82414 C 28600,82487 28661,82559 28735,82572 L 31705,83107 C 31779,83120 31860,83188 31881,83258 L 32809,85499 C 32843,85565 32834,85668 32792,85728 L 31105,88107 C 31062,88167 31071,88259 31124,88311 L 33340,90455 C 33393,90506 33488,90515 33550,90473 L 35966,88869 C 36028,88828 36133,88826 36197,88862 L 37262,89413 C 37330,89446 37409,89417 37437,89350 L 39633,84216 C 39662,84148 39633,84062 39568,84023 L 39302,83866 C 39254,83836 39187,83787 39133,83741 38172,83145 37534,82103 37534,80916 37534,79064 39086,77562 41000,77562 42914,77562 44466,79064 44466,80916 44466,82103 43828,83145 42867,83741 42814,83787 42748,83836 42698,83866 L 42432,84023 C 42367,84062 42338,84148 42367,84216 L 44563,89350 C 44593,89417 44670,89446 44738,89413 L 45803,88862 C 45869,88826 45972,88828 46035,88871 L 48450,90475 C 48512,90515 48607,90506 48660,90456 L 50877,88311 C 50930,88259 50939,88167 50896,88107 L 49208,85728 C 49166,85668 49159,85565 49191,85499 L 50119,83258 C 50142,83188 50221,83120 50295,83107 L 53265,82572 C 53339,82559 53400,82487 53400,82414 L 53400,79383 C 53400,79309 53339,79238 53265,79225 Z"/>
       </g>
      </g>
      <g class="com.sun.star.drawing.ClosedBezierShape">
       <g id="id7">
        <rect class="BoundingBox" stroke="none" fill="none" x="27584" y="58500" width="26800" height="8115"/>
        <path fill="rgb(0,0,0)" stroke="none" d="M 31300,66300 C 30900,66600 29300,67000 28200,65800 27100,64600 27600,62700 28700,62000 28700,62000 33300,58500 41000,58500 48700,58500 53300,62000 53300,62000 54500,62900 54800,64500 53700,65800 52600,67100 51000,66500 50500,66200 50400,66100 46800,63500 41000,63500 35200,63500 31300,66300 31300,66300 Z"/>
       </g>
      </g>
      <g class="com.sun.star.drawing.ClosedBezierShape">
       <g id="id8">
        <rect class="BoundingBox" stroke="none" fill="none" x="19501" y="46000" width="43080" height="10902"/>
        <path fill="rgb(0,0,0)" stroke="none" d="M 23600,56300 C 22300,57400 20700,56800 20000,56000 19300,55200 19200,53200 20600,52300 20800,52200 28400,46000 40900,46000 53400,46000 61200,52100 61600,52400 62600,53100 63000,54700 62000,56000 61000,57300 59100,56900 58600,56400 58600,56400 51700,51000 41000,51000 30300,51000 23600,56300 23600,56300 Z"/>
       </g>
      </g>
      <g class="com.sun.star.drawing.ClosedBezierShape">
       <g id="id9">
        <rect class="BoundingBox" stroke="none" fill="none" x="11317" y="33499" width="59372" height="13695"/>
        <path fill="rgb(0,0,0)" stroke="none" d="M 15400,46700 C 14300,47400 13000,47400 12000,46400 11000,45400 11100,43600 12300,42700 12300,42700 23600,33400 41000,33500 58400,33600 68700,42100 70000,43000 71000,43900 70800,45500 70100,46400 69400,47300 68000,47400 66800,46800 65500,45900 56400,38600 41000,38500 25600,38400 15400,46700 15400,46700 Z"/>
       </g>
      </g>
      <g class="com.sun.star.drawing.ClosedBezierShape">
       <g id="id10">
        <rect class="BoundingBox" stroke="none" fill="none" x="112659" y="69559" width="25683" height="22484"/>
        <path fill="rgb(237,28,36)" stroke="none" d="M 137765,80325 L 134721,79777 C 134647,79763 134565,79696 134541,79627 L 133607,77519 C 133572,77455 133578,77352 133622,77292 L 135396,74790 C 135439,74730 135430,74638 135377,74586 L 133160,72441 C 133107,72390 133013,72381 132950,72423 L 130319,74170 C 130257,74211 130150,74219 130083,74187 L 127972,73350 C 127900,73328 127830,73250 127816,73179 L 127229,70131 C 127216,70059 127143,70000 127068,70000 L 123933,70000 C 123858,70000 123785,70059 123771,70131 L 123185,73179 C 123171,73250 123101,73328 123029,73350 L 120918,74187 C 120850,74219 120743,74211 120681,74170 L 118051,72423 C 117988,72381 117893,72390 117840,72441 L 115624,74586 C 115571,74638 115562,74730 115605,74790 L 117379,77292 C 117422,77352 117428,77455 117394,77519 L 116460,79627 C 116435,79696 116355,79763 116279,79777 L 113235,80325 C 113161,80338 113100,80409 113100,80482 L 113100,83514 C 113100,83587 113161,83659 113235,83672 L 116205,84207 C 116279,84220 116360,84288 116381,84358 L 117309,86599 C 117343,86665 117334,86768 117292,86828 L 115605,89207 C 115562,89267 115571,89359 115624,89411 L 117840,91555 C 117893,91606 117988,91615 118050,91573 L 120466,89969 C 120528,89928 120633,89926 120697,89962 L 121762,90513 C 121830,90546 121909,90517 121937,90450 L 124133,85316 C 124162,85248 124133,85162 124068,85123 L 123802,84966 C 123754,84936 123687,84887 123633,84841 122672,84245 122034,83203 122034,82016 122034,80164 123586,78662 125500,78662 127414,78662 128966,80164 128966,82016 128966,83203 128328,84245 127367,84841 127314,84887 127248,84936 127198,84966 L 126932,85123 C 126867,85162 126838,85248 126867,85316 L 129063,90450 C 129093,90517 129170,90546 129238,90513 L 130303,89962 C 130369,89926 130472,89928 130535,89971 L 132950,91575 C 133012,91615 133107,91606 133160,91556 L 135377,89411 C 135430,89359 135439,89267 135396,89207 L 133708,86828 C 133666,86768 133659,86665 133691,86599 L 134619,84358 C 134642,84288 134721,84220 134795,84207 L 137765,83672 C 137839,83659 137900,83587 137900,83514 L 137900,80483 C 137900,80409 137839,80338 137765,80325 Z"/>
        <path fill="none" stroke="rgb(0,0,0)" stroke-width="882" stroke-linejoin="miter" d="M 137765,80325 L 134721,79777 C 134647,79763 134565,79696 134541,79627 L 133607,77519 C 133572,77455 133578,77352 133622,77292 L 135396,74790 C 135439,74730 135430,74638 135377,74586 L 133160,72441 C 133107,72390 133013,72381 132950,72423 L 130319,74170 C 130257,74211 130150,74219 130083,74187 L 127972,73350 C 127900,73328 127830,73250 127816,73179 L 127229,70131 C 127216,70059 127143,70000 127068,70000 L 123933,70000 C 123858,70000 123785,70059 123771,70131 L 123185,73179 C 123171,73250 123101,73328 123029,73350 L 120918,74187 C 120850,74219 120743,74211 120681,74170 L 118051,72423 C 117988,72381 117893,72390 117840,72441 L 115624,74586 C 115571,74638 115562,74730 115605,74790 L 117379,77292 C 117422,77352 117428,77455 117394,77519 L 116460,79627 C 116435,79696 116355,79763 116279,79777 L 113235,80325 C 113161,80338 113100,80409 113100,80482 L 113100,83514 C 113100,83587 113161,83659 113235,83672 L 116205,84207 C 116279,84220 116360,84288 116381,84358 L 117309,86599 C 117343,86665 117334,86768 117292,86828 L 115605,89207 C 115562,89267 115571,89359 115624,89411 L 117840,91555 C 117893,91606 117988,91615 118050,91573 L 120466,89969 C 120528,89928 120633,89926 120697,89962 L 121762,90513 C 121830,90546 121909,90517 121937,90450 L 124133,85316 C 124162,85248 124133,85162 124068,85123 L 123802,84966 C 123754,84936 123687,84887 123633,84841 122672,84245 122034,83203 122034,82016 122034,80164 123586,78662 125500,78662 127414,78662 128966,80164 128966,82016 128966,83203 128328,84245 127367,84841 127314,84887 127248,84936 127198,84966 L 126932,85123 C 126867,85162 126838,85248 126867,85316 L 129063,90450 C 129093,90517 129170,90546 129238,90513 L 130303,89962 C 130369,89926 130472,89928 130535,89971 L 132950,91575 C 133012,91615 133107,91606 133160,91556 L 135377,89411 C 135430,89359 135439,89267 135396,89207 L 133708,86828 C 133666,86768 133659,86665 133691,86599 L 134619,84358 C 134642,84288 134721,84220 134795,84207 L 137765,83672 C 137839,83659 137900,83587 137900,83514 L 137900,80483 C 137900,80409 137839,80338 137765,80325 Z"/>
       </g>
      </g>
      <g class="com.sun.star.drawing.ClosedBezierShape">
       <g id="id11">
        <rect class="BoundingBox" stroke="none" fill="none" x="112084" y="59600" width="26800" height="8115"/>
        <path fill="rgb(0,0,0)" stroke="none" d="M 115800,67400 C 115400,67700 113800,68100 112700,66900 111600,65700 112100,63800 113200,63100 113200,63100 117800,59600 125500,59600 133200,59600 137800,63100 137800,63100 139000,64000 139300,65600 138200,66900 137100,68200 135500,67600 135000,67300 134900,67200 131300,64600 125500,64600 119700,64600 115800,67400 115800,67400 Z"/>
       </g>
      </g>
      <g class="com.sun.star.drawing.ClosedBezierShape">
       <g id="id12">
        <rect class="BoundingBox" stroke="none" fill="none" x="104000" y="47100" width="43081" height="10902"/>
        <path fill="rgb(0,0,0)" stroke="none" d="M 108100,57400 C 106800,58500 105200,57900 104500,57100 103800,56300 103700,54300 105100,53400 105300,53300 112900,47100 125400,47100 137900,47100 145700,53200 146100,53500 147100,54200 147500,55800 146500,57100 145500,58400 143600,58000 143100,57500 143100,57500 136200,52100 125500,52100 114800,52100 108100,57400 108100,57400 Z"/>
       </g>
      </g>
      <g class="com.sun.star.drawing.ClosedBezierShape">
       <g id="id13">
        <rect class="BoundingBox" stroke="none" fill="none" x="95818" y="34599" width="59371" height="13695"/>
        <path fill="rgb(0,0,0)" stroke="none" d="M 99900,47800 C 98800,48500 97500,48500 96500,47500 95500,46500 95600,44700 96800,43800 96800,43800 108100,34500 125500,34600 142900,34700 153200,43200 154500,44100 155500,45000 155300,46600 154600,47500 153900,48400 152500,48500 151300,47900 150000,47000 140900,39700 125500,39600 110100,39500 99900,47800 99900,47800 Z"/>
       </g>
      </g>
      <g class="com.sun.star.drawing.ClosedBezierShape">
       <g id="id14">
        <rect class="BoundingBox" stroke="none" fill="none" x="-52941" y="69359" width="25683" height="22484"/>
        <path fill="rgb(255,255,255)" stroke="none" d="M -27835,80125 L -30879,79577 C -30953,79563 -31035,79496 -31059,79427 L -31993,77319 C -32028,77255 -32022,77152 -31978,77092 L -30204,74590 C -30161,74530 -30170,74438 -30223,74386 L -32440,72241 C -32493,72190 -32587,72181 -32650,72223 L -35281,73970 C -35343,74011 -35450,74019 -35517,73987 L -37628,73150 C -37700,73128 -37770,73050 -37784,72979 L -38371,69931 C -38384,69859 -38457,69800 -38532,69800 L -41667,69800 C -41742,69800 -41815,69859 -41829,69931 L -42415,72979 C -42429,73050 -42499,73128 -42571,73150 L -44682,73987 C -44750,74019 -44857,74011 -44919,73970 L -47549,72223 C -47612,72181 -47707,72190 -47760,72241 L -49976,74386 C -50029,74438 -50038,74530 -49995,74590 L -48221,77092 C -48178,77152 -48172,77255 -48206,77319 L -49140,79427 C -49165,79496 -49245,79563 -49321,79577 L -52365,80125 C -52439,80138 -52500,80209 -52500,80282 L -52500,83314 C -52500,83387 -52439,83459 -52365,83472 L -49395,84007 C -49321,84020 -49240,84088 -49219,84158 L -48291,86399 C -48257,86465 -48266,86568 -48308,86628 L -49995,89007 C -50038,89067 -50029,89159 -49976,89211 L -47760,91355 C -47707,91406 -47612,91415 -47550,91373 L -45134,89769 C -45072,89728 -44967,89726 -44903,89762 L -43838,90313 C -43770,90346 -43691,90317 -43663,90250 L -41467,85116 C -41438,85048 -41467,84962 -41532,84923 L -41798,84766 C -41846,84736 -41913,84687 -41967,84641 -42928,84045 -43566,83003 -43566,81816 -43566,79964 -42014,78462 -40100,78462 -38186,78462 -36634,79964 -36634,81816 -36634,83003 -37272,84045 -38233,84641 -38286,84687 -38352,84736 -38402,84766 L -38668,84923 C -38733,84962 -38762,85048 -38733,85116 L -36537,90250 C -36507,90317 -36430,90346 -36362,90313 L -35297,89762 C -35231,89726 -35128,89728 -35065,89771 L -32650,91375 C -32588,91415 -32493,91406 -32440,91356 L -30223,89211 C -30170,89159 -30161,89067 -30204,89007 L -31892,86628 C -31934,86568 -31941,86465 -31909,86399 L -30981,84158 C -30958,84088 -30879,84020 -30805,84007 L -27835,83472 C -27761,83459 -27700,83387 -27700,83314 L -27700,80283 C -27700,80209 -27761,80138 -27835,80125 Z"/>
        <path fill="none" stroke="rgb(0,153,176)" stroke-width="882" stroke-linejoin="miter" d="M -27835,80125 L -30879,79577 C -30953,79563 -31035,79496 -31059,79427 L -31993,77319 C -32028,77255 -32022,77152 -31978,77092 L -30204,74590 C -30161,74530 -30170,74438 -30223,74386 L -32440,72241 C -32493,72190 -32587,72181 -32650,72223 L -35281,73970 C -35343,74011 -35450,74019 -35517,73987 L -37628,73150 C -37700,73128 -37770,73050 -37784,72979 L -38371,69931 C -38384,69859 -38457,69800 -38532,69800 L -41667,69800 C -41742,69800 -41815,69859 -41829,69931 L -42415,72979 C -42429,73050 -42499,73128 -42571,73150 L -44682,73987 C -44750,74019 -44857,74011 -44919,73970 L -47549,72223 C -47612,72181 -47707,72190 -47760,72241 L -49976,74386 C -50029,74438 -50038,74530 -49995,74590 L -48221,77092 C -48178,77152 -48172,77255 -48206,77319 L -49140,79427 C -49165,79496 -49245,79563 -49321,79577 L -52365,80125 C -52439,80138 -52500,80209 -52500,80282 L -52500,83314 C -52500,83387 -52439,83459 -52365,83472 L -49395,84007 C -49321,84020 -49240,84088 -49219,84158 L -48291,86399 C -48257,86465 -48266,86568 -48308,86628 L -49995,89007 C -50038,89067 -50029,89159 -49976,89211 L -47760,91355 C -47707,91406 -47612,91415 -47550,91373 L -45134,89769 C -45072,89728 -44967,89726 -44903,89762 L -43838,90313 C -43770,90346 -43691,90317 -43663,90250 L -41467,85116 C -41438,85048 -41467,84962 -41532,84923 L -41798,84766 C -41846,84736 -41913,84687 -41967,84641 -42928,84045 -43566,83003 -43566,81816 -43566,79964 -42014,78462 -40100,78462 -38186,78462 -36634,79964 -36634,81816 -36634,83003 -37272,84045 -38233,84641 -38286,84687 -38352,84736 -38402,84766 L -38668,84923 C -38733,84962 -38762,85048 -38733,85116 L -36537,90250 C -36507,90317 -36430,90346 -36362,90313 L -35297,89762 C -35231,89726 -35128,89728 -35065,89771 L -32650,91375 C -32588,91415 -32493,91406 -32440,91356 L -30223,89211 C -30170,89159 -30161,89067 -30204,89007 L -31892,86628 C -31934,86568 -31941,86465 -31909,86399 L -30981,84158 C -30958,84088 -30879,84020 -30805,84007 L -27835,83472 C -27761,83459 -27700,83387 -27700,83314 L -27700,80283 C -27700,80209 -27761,80138 -27835,80125 Z"/>
       </g>
      </g>
      <g class="com.sun.star.drawing.ClosedBezierShape">
       <g id="id15">
        <rect class="BoundingBox" stroke="none" fill="none" x="-53516" y="59400" width="26800" height="8115"/>
        <path fill="rgb(0,153,176)" stroke="none" d="M -49800,67200 C -50200,67500 -51800,67900 -52900,66700 -54000,65500 -53500,63600 -52400,62900 -52400,62900 -47800,59400 -40100,59400 -32400,59400 -27800,62900 -27800,62900 -26600,63800 -26300,65400 -27400,66700 -28500,68000 -30100,67400 -30600,67100 -30700,67000 -34300,64400 -40100,64400 -45900,64400 -49800,67200 -49800,67200 Z"/>
       </g>
      </g>
      <g class="com.sun.star.drawing.ClosedBezierShape">
       <g id="id16">
        <rect class="BoundingBox" stroke="none" fill="none" x="-61599" y="46900" width="43080" height="10902"/>
        <path fill="rgb(0,153,176)" stroke="none" d="M -57500,57200 C -58800,58300 -60400,57700 -61100,56900 -61800,56100 -61900,54100 -60500,53200 -60300,53100 -52700,46900 -40200,46900 -27700,46900 -19900,53000 -19500,53300 -18500,54000 -18100,55600 -19100,56900 -20100,58200 -22000,57800 -22500,57300 -22500,57300 -29400,51900 -40100,51900 -50800,51900 -57500,57200 -57500,57200 Z"/>
       </g>
      </g>
      <g class="com.sun.star.drawing.ClosedBezierShape">
       <g id="id17">
        <rect class="BoundingBox" stroke="none" fill="none" x="-69782" y="34398" width="59371" height="13696"/>
        <path fill="rgb(0,153,176)" stroke="none" d="M -65700,47600 C -66800,48300 -68100,48300 -69100,47300 -70100,46300 -70000,44500 -68800,43600 -68800,43600 -57500,34300 -40100,34400 -22700,34500 -12400,43000 -11100,43900 -10100,44800 -10300,46400 -11000,47300 -11700,48200 -13100,48300 -14300,47700 -15600,46800 -24700,39500 -40100,39400 -55500,39300 -65700,47600 -65700,47600 Z"/>
       </g>
      </g>
     </g>
    </g>
   </g>
  </g>
 </g>
</svg>