<?xml version="1.0" encoding="UTF-8"?>
<!DOCTYPE svg PUBLIC "-//W3C//DTD SVG 1.1//EN" "http://www.w3.org/Graphics/SVG/1.1/DTD/svg11.dtd">
<svg version="1.2" width="841mm" height="1189mm" viewBox="0 0 84100 118900" preserveAspectRatio="xMidYMid" fill-rule="evenodd" stroke-width="28.222" stroke-linejoin="round" xmlns="http://www.w3.org/2000/svg" xmlns:ooo="http://xml.openoffice.org/svg/export" xmlns:xlink="http://www.w3.org/1999/xlink" xmlns:presentation="http://sun.com/xmlns/staroffice/presentation" xmlns:smil="http://www.w3.org/2001/SMIL20/" xmlns:anim="urn:oasis:names:tc:opendocument:xmlns:animation:1.0" xml:space="preserve">
 <defs class="ClipPathGroup">
  <clipPath id="presentation_clip_path" clipPathUnits="userSpaceOnUse">
   <rect x="0" y="0" width="84100" height="118900"/>
  </clipPath>
  <clipPath id="presentation_clip_path_shrink" clipPathUnits="userSpaceOnUse">
   <rect x="84" y="118" width="83932" height="118663"/>
  </clipPath>
 </defs>
 <defs class="TextShapeIndex">
  <g ooo:slide="id1" ooo:id-list="id3 id4 id5 id6 id7"/>
 </defs>
 <defs class="EmbeddedBulletChars">
  <g id="bullet-char-template-57356" transform="scale(0.00048828125,-0.00048828125)">
   <path d="M 580,1141 L 1163,571 580,0 -4,571 580,1141 Z"/>
  </g>
  <g id="bullet-char-template-57354" transform="scale(0.00048828125,-0.00048828125)">
   <path d="M 8,1128 L 1137,1128 1137,0 8,0 8,1128 Z"/>
  </g>
  <g id="bullet-char-template-10146" transform="scale(0.00048828125,-0.00048828125)">
   <path d="M 174,0 L 602,739 174,1481 1456,739 174,0 Z M 1358,739 L 309,1346 659,739 1358,739 Z"/>
  </g>
  <g id="bullet-char-template-10132" transform="scale(0.00048828125,-0.00048828125)">
   <path d="M 2015,739 L 1276,0 717,0 1260,543 174,543 174,936 1260,936 717,1481 1274,1481 2015,739 Z"/>
  </g>
  <g id="bullet-char-template-10007" transform="scale(0.00048828125,-0.00048828125)">
   <path d="M 0,-2 C -7,14 -16,27 -25,37 L 356,567 C 262,823 215,952 215,954 215,979 228,992 255,992 264,992 276,990 289,987 310,991 331,999 354,1012 L 381,999 492,748 772,1049 836,1024 860,1049 C 881,1039 901,1025 922,1006 886,937 835,863 770,784 769,783 710,716 594,584 L 774,223 C 774,196 753,168 711,139 L 727,119 C 717,90 699,76 672,76 641,76 570,178 457,381 L 164,-76 C 142,-110 111,-127 72,-127 30,-127 9,-110 8,-76 1,-67 -2,-52 -2,-32 -2,-23 -1,-13 0,-2 Z"/>
  </g>
  <g id="bullet-char-template-10004" transform="scale(0.00048828125,-0.00048828125)">
   <path d="M 285,-33 C 182,-33 111,30 74,156 52,228 41,333 41,471 41,549 55,616 82,672 116,743 169,778 240,778 293,778 328,747 346,684 L 369,508 C 377,444 397,411 428,410 L 1163,1116 C 1174,1127 1196,1133 1229,1133 1271,1133 1292,1118 1292,1087 L 1292,965 C 1292,929 1282,901 1262,881 L 442,47 C 390,-6 338,-33 285,-33 Z"/>
  </g>
  <g id="bullet-char-template-9679" transform="scale(0.00048828125,-0.00048828125)">
   <path d="M 813,0 C 632,0 489,54 383,161 276,268 223,411 223,592 223,773 276,916 383,1023 489,1130 632,1184 813,1184 992,1184 1136,1130 1245,1023 1353,916 1407,772 1407,592 1407,412 1353,268 1245,161 1136,54 992,0 813,0 Z"/>
  </g>
  <g id="bullet-char-template-8226" transform="scale(0.00048828125,-0.00048828125)">
   <path d="M 346,457 C 273,457 209,483 155,535 101,586 74,649 74,723 74,796 101,859 155,911 209,963 273,989 346,989 419,989 480,963 531,910 582,859 608,796 608,723 608,648 583,586 532,535 482,483 420,457 346,457 Z"/>
  </g>
  <g id="bullet-char-template-8211" transform="scale(0.00048828125,-0.00048828125)">
   <path d="M -4,459 L 1135,459 1135,606 -4,606 -4,459 Z"/>
  </g>
  <g id="bullet-char-template-61548" transform="scale(0.00048828125,-0.00048828125)">
   <path d="M 173,740 C 173,903 231,1043 346,1159 462,1274 601,1332 765,1332 928,1332 1067,1274 1183,1159 1299,1043 1357,903 1357,740 1357,577 1299,437 1183,322 1067,206 928,148 765,148 601,148 462,206 346,322 231,437 173,577 173,740 Z"/>
  </g>
 </defs>
 <defs class="TextEmbeddedBitmaps"/>
 <g>
  <g id="id2" class="Master_Slide">
   <g id="bg-id2" class="Background"/>
   <g id="bo-id2" class="BackgroundObjects"/>
  </g>
 </g>
 <g class="SlideGroup">
  <g>
   <g id="container-id1">
    <g id="id1" class="Slide" clip-path="url(#presentation_clip_path)">
     <g class="Page">
      <g class="com.sun.star.drawing.ClosedBezierShape">
       <g id="id3">
        <rect class="BoundingBox" stroke="none" fill="none" x="28459" y="65959" width="25683" height="22483"/>
        <path fill="none" stroke="rgb(0,0,0)" stroke-width="882" stroke-linejoin="miter" d="M 53565,76725 L 50521,76177 C 50447,76163 50365,76096 50341,76027 L 49407,73919 C 49372,73855 49378,73752 49422,73692 L 51196,71190 C 51239,71130 51230,71038 51177,70986 L 48960,68841 C 48907,68790 48813,68781 48750,68823 L 46119,70570 C 46057,70611 45950,70619 45883,70587 L 43772,69750 C 43700,69728 43630,69650 43616,69579 L 43029,66531 C 43016,66459 42943,66400 42868,66400 L 39733,66400 C 39658,66400 39585,66459 39571,66531 L 38985,69579 C 38971,69650 38901,69728 38829,69750 L 36718,70587 C 36650,70619 36543,70611 36481,70570 L 33851,68823 C 33788,68781 33693,68790 33640,68841 L 31424,70986 C 31371,71038 31362,71130 31405,71190 L 33179,73692 C 33222,73752 33228,73855 33194,73919 L 32260,76027 C 32235,76096 32155,76163 32079,76177 L 29035,76725 C 28961,76738 28900,76809 28900,76882 L 28900,79914 C 28900,79987 28961,80059 29035,80072 L 32005,80607 C 32079,80620 32160,80688 32181,80758 L 33109,82999 C 33143,83065 33134,83168 33092,83228 L 31405,85607 C 31362,85667 31371,85759 31424,85811 L 33640,87955 C 33693,88006 33788,88015 33850,87973 L 36266,86369 C 36328,86328 36433,86326 36497,86362 L 37562,86913 C 37630,86946 37709,86917 37737,86850 L 39933,81716 C 39962,81648 39933,81562 39868,81523 L 39602,81366 C 39554,81336 39487,81287 39433,81241 38472,80645 37834,79603 37834,78416 37834,76564 39386,75062 41300,75062 43214,75062 44766,76564 44766,78416 44766,79603 44128,80645 43167,81241 43114,81287 43048,81336 42998,81366 L 42732,81523 C 42667,81562 42638,81648 42667,81716 L 44863,86850 C 44893,86917 44970,86946 45038,86913 L 46103,86362 C 46169,86326 46272,86328 46335,86371 L 48750,87975 C 48812,88015 48907,88006 48960,87956 L 51177,85811 C 51230,85759 51239,85667 51196,85607 L 49508,83228 C 49466,83168 49459,83065 49491,82999 L 50419,80758 C 50442,80688 50521,80620 50595,80607 L 53565,80072 C 53639,80059 53700,79987 53700,79914 L 53700,76883 C 53700,76809 53639,76738 53565,76725 Z"/>
       </g>
      </g>
      <g class="com.sun.star.drawing.CustomShape">
       <g id="id4">
        <rect class="BoundingBox" stroke="none" fill="none" x="1899" y="18299" width="80004" height="80004"/>
        <path fill="none" stroke="rgb(0,0,0)" d="M 41900,18300 C 64580,18300 81900,35620 81900,58300 81900,80980 64580,98300 41900,98300 19220,98300 1900,80980 1900,58300 1900,35620 19220,18300 41900,18300 Z"/>
        <path fill="none" stroke="rgb(0,0,0)" d="M 1900,18300 L 1900,18300 Z"/>
        <path fill="none" stroke="rgb(0,0,0)" d="M 81901,98301 L 81901,98301 Z"/>
       </g>
      </g>
      <g class="com.sun.star.drawing.ClosedBezierShape">
       <g id="id5">
        <rect class="BoundingBox" stroke="none" fill="none" x="28463" y="54488" width="26301" height="10085"/>
        <path fill="rgb(0,0,0)" stroke="none" d="M 33000,64100 C 32000,64300 30700,64800 29500,63700 28300,62600 28200,61200 28900,59700 28900,59700 33700,54200 42000,54500 50300,54800 54100,59600 54100,59600 55000,60400 55000,62400 54000,63600 53000,64800 51000,64700 50100,64300 48800,63500 47000,60500 41500,60600 36000,60700 34900,62400 33000,64100 Z"/>
       </g>
      </g>
      <g class="com.sun.star.drawing.ClosedBezierShape">
       <g id="id6">
        <rect class="BoundingBox" stroke="none" fill="none" x="20432" y="42592" width="42997" height="13543"/>
        <path fill="rgb(0,0,0)" stroke="none" d="M 24900,55600 C 23800,55800 22200,56000 21300,55200 20400,54400 20200,52600 20700,51500 20700,51500 28100,42300 41700,42600 55300,42900 63000,51400 63000,51400 63400,52100 63800,54000 62800,55200 61800,56400 59500,56300 58600,55700 57300,54900 52963,48703 41800,48900 30637,49097 26200,55000 24900,55600 Z"/>
       </g>
      </g>
      <g class="com.sun.star.drawing.ClosedBezierShape">
       <g id="id7">
        <rect class="BoundingBox" stroke="none" fill="none" x="11686" y="30592" width="59833" height="17185"/>
        <path fill="rgb(0,0,0)" stroke="none" d="M 16400,47300 C 15200,47900 13600,47600 12500,46600 11400,45600 11500,43800 12300,42700 12300,42700 23018,31114 41259,30607 59500,30100 70900,43200 70900,43200 71800,44000 71700,45600 70700,46800 69700,48000 68100,48000 66800,47300 65500,46500 57700,36900 41359,36907 25018,36914 16500,47200 16400,47300 Z"/>
        <path fill="none" stroke="rgb(0,0,0)" d="M 16400,47300 C 15200,47900 13600,47600 12500,46600 11400,45600 11500,43800 12300,42700 12300,42700 23018,31114 41259,30607 59500,30100 70900,43200 70900,43200 71800,44000 71700,45600 70700,46800 69700,48000 68100,48000 66800,47300 65500,46500 57700,36900 41359,36907 25018,36914 16500,47200 16400,47300 Z"/>
       </g>
      </g>
     </g>
    </g>
   </g>
  </g>
 </g>
</svg>